<svg width="129" height="35" viewBox="0 0 129 35" fill="none" xmlns="http://www.w3.org/2000/svg">
<path d="M26.7009 0V14.0984H21.4064V0.204918H17.826V34.3852H21.4064V17.9098H26.7009V35H30.2813V0H26.7009ZM3.6947 29.3033V1.18853H0V32.9098H7.46558C10.3985 32.9098 13.5218 32.459 15.4644 31.5574V27.9508C13.4838 28.7705 10.6651 29.3033 7.88457 29.3033H3.6947Z" fill="#191A20"/>
<path d="M58.8072 17.1311H62.5781V0H58.8072V17.1311ZM42.9238 16.6803C48.942 16.6803 52.9795 13.2787 52.9795 8.52459C52.9795 3.77049 48.942 0.368853 42.9238 0.368853C36.9057 0.368853 32.8301 3.77049 32.8301 8.52459C32.8301 13.2787 36.9057 16.6803 42.9238 16.6803ZM42.9238 13.4016C39.191 13.4016 36.5628 11.4754 36.5628 8.52459C36.5628 5.57377 39.191 3.64754 42.9238 3.64754C46.6566 3.64754 49.2467 5.57377 49.2467 8.52459C49.2467 11.4754 46.6566 13.4016 42.9238 13.4016ZM35.4202 34.5492H63.378V31.3525H39.1529V28.3197H62.5781V19.0574H35.344V22.2541H58.8453V25.2869H35.4202V34.5492Z" fill="#191A20"/>
<path d="M92.1324 35H95.9033V0H92.1324V35ZM76.5918 22.7869C82.4196 22.7869 86.6475 18.2787 86.6475 11.7623C86.6475 5.2459 82.4196 0.737705 76.5918 0.737705C70.726 0.737705 66.5362 5.2459 66.5362 11.7623C66.5362 18.2787 70.726 22.7869 76.5918 22.7869ZM76.5918 19.0984C72.7067 19.0984 70.2309 15.9426 70.2309 11.7623C70.2309 7.58197 72.7067 4.38525 76.5918 4.38525C80.4389 4.38525 82.9528 7.58197 82.9528 11.7623C82.9528 15.9426 80.4389 19.0984 76.5918 19.0984ZM65.4316 32.9098H78.4963C83.1814 32.9098 87.2189 32.2951 89.39 31.2295V27.459C87.1808 28.5656 83.1814 29.0984 78.7249 29.0984H65.4316V32.9098Z" fill="#191A20"/>
<path d="M125.229 0V18.1967H129V0H125.229ZM110.336 11.3115L120.201 17.5L121.991 14.4672L111.783 8.19672C112.202 7.0082 112.469 5.69672 112.545 4.34426H120.925V0.90164H99.8614V4.34426H108.736C108.241 9.59016 104.813 13.4426 99.4424 14.2213V17.8279C104.242 17.3361 108.051 14.918 110.336 11.3115ZM125.305 23.6066H105.118V19.7131H101.423V34.5492H129V19.7131H125.305V23.6066ZM105.118 31.2295V26.8852H125.305V31.2295H105.118Z" fill="#191A20"/>
</svg>
